# xmcd
#
# Track frame offsets:
#	150
#	11620
#	23889
#	29353
#	40017
#	42841
#	46665
#	51820
#	60224
#	66860
#	78553
#	86382
#	93243
#	101383
#	106197
#	109895
#	115899
#	119936
#
# Disc length: 1765 seconds
#
# Revision: 0
# Processed by: cddbd v1.4PL0 Copyright (c) Steve Scherf et al.
# Submitted via: dBpowerAMP V4.0
#
DISCID=dc06e312
DTITLE=Jerry Clower - An Officer and A Ledbetter
DYEAR=1985
DGENRE=Comedy
TTITLE0=Fox 12...Over
TTITLE1=Marines Are Tough
TTITLE2=The Marine Recruiter
TTITLE3=Our First Banana
TTITLE4=Camp Perry
TTITLE5=The Civil War
TTITLE6=Marcel's Courtmartial
TTITLE7=Christmas Dinner
TTITLE8=Rat Killings
TTITLE9=Catahoula Cur Dog
TTITLE10=What's That Smell
TTITLE11=Uncle Versie at the Opera
TTITLE12=We was so Poor
TTITLE13=Painting the Porch
TTITLE14=Baseball Umpire
TTITLE15=New Teeth
TTITLE16=USO
TTITLE17=USS Bennington
EXTD=
EXTT0=
EXTT1=
EXTT2=
EXTT3=
EXTT4=
EXTT5=
EXTT6=
EXTT7=
EXTT8=
EXTT9=
EXTT10=
EXTT11=
EXTT12=
EXTT13=
EXTT14=
EXTT15=
EXTT16=
EXTT17=
PLAYORDER=
